<?xml version="1.0" standalone="no"?><!DOCTYPE svg PUBLIC "-//W3C//DTD SVG 1.1//EN" "http://www.w3.org/Graphics/SVG/1.1/DTD/svg11.dtd"><svg t="1585647534267" class="icon" viewBox="0 0 1024 1024" version="1.1" xmlns="http://www.w3.org/2000/svg" p-id="710" xmlns:xlink="http://www.w3.org/1999/xlink" width="200" height="200"><defs><style type="text/css"></style></defs><path d="M42.666667 204.8c0-14.933333 8.533333-29.866667 21.333333-36.266667l213.333333-123.733333c12.8-8.533333 29.866667-8.533333 42.666667 0l192 110.933333 192-110.933333c12.8-8.533333 29.866667-8.533333 42.666667 0l213.333333 123.733333c12.8 8.533333 21.333333 21.333333 21.333333 36.266667v245.333333c0 14.933333-8.533333 29.866667-21.333333 36.266667L768 597.333333v221.866667c0 14.933333-8.533333 29.866667-21.333333 36.266667l-213.333334 123.733333c-6.4 4.266667-14.933333 6.4-21.333333 6.4s-14.933333-2.133333-21.333333-6.4l-213.333334-123.733333c-12.8-8.533333-21.333333-21.333333-21.333333-36.266667V597.333333l-192-110.933333c-12.8-8.533333-21.333333-21.333333-21.333333-36.266667V204.8z m85.333333 23.466667V426.666667l170.666667 98.133333 170.666666-98.133333v-198.4l-170.666666-98.133334-170.666667 98.133334zM682.666667 597.333333l-170.666667-98.133333-170.666667 98.133333v196.266667l170.666667 98.133333 170.666667-98.133333V597.333333z m-128-369.066666V426.666667l170.666666 98.133333 170.666667-98.133333v-198.4l-170.666667-98.133334-170.666666 98.133334z" fill="#2F3CF4" p-id="711"></path></svg>